<svg width="362" height="156" viewBox="0 0 362 156" fill="none" xmlns="http://www.w3.org/2000/svg">
  <path
    d="M186.08 138V129.273H191.313V130.21H187.137V133.159H190.921V134.097H187.137V138H186.08ZM192.917 138V131.455H193.888V132.443H193.956C194.076 132.119 194.292 131.857 194.604 131.655C194.917 131.453 195.269 131.352 195.661 131.352C195.735 131.352 195.827 131.354 195.938 131.357C196.049 131.359 196.132 131.364 196.189 131.369V132.392C196.155 132.384 196.077 132.371 195.955 132.354C195.836 132.334 195.709 132.324 195.576 132.324C195.257 132.324 194.973 132.391 194.723 132.524C194.476 132.655 194.28 132.837 194.135 133.07C193.993 133.3 193.922 133.562 193.922 133.858V138H192.917ZM199.841 138.136C199.25 138.136 198.732 137.996 198.286 137.714C197.843 137.433 197.496 137.04 197.246 136.534C196.999 136.028 196.875 135.437 196.875 134.761C196.875 134.08 196.999 133.484 197.246 132.976C197.496 132.467 197.843 132.072 198.286 131.791C198.732 131.51 199.25 131.369 199.841 131.369C200.432 131.369 200.949 131.51 201.392 131.791C201.838 132.072 202.185 132.467 202.432 132.976C202.682 133.484 202.807 134.08 202.807 134.761C202.807 135.437 202.682 136.028 202.432 136.534C202.185 137.04 201.838 137.433 201.392 137.714C200.949 137.996 200.432 138.136 199.841 138.136ZM199.841 137.233C200.29 137.233 200.659 137.118 200.949 136.888C201.239 136.658 201.453 136.355 201.593 135.98C201.732 135.605 201.801 135.199 201.801 134.761C201.801 134.324 201.732 133.916 201.593 133.538C201.453 133.161 201.239 132.855 200.949 132.622C200.659 132.389 200.29 132.273 199.841 132.273C199.392 132.273 199.023 132.389 198.733 132.622C198.444 132.855 198.229 133.161 198.09 133.538C197.951 133.916 197.881 134.324 197.881 134.761C197.881 135.199 197.951 135.605 198.09 135.98C198.229 136.355 198.444 136.658 198.733 136.888C199.023 137.118 199.392 137.233 199.841 137.233ZM205.348 134.062V138H204.342V131.455H205.314V132.477H205.399C205.553 132.145 205.786 131.878 206.098 131.676C206.411 131.472 206.814 131.369 207.308 131.369C207.751 131.369 208.139 131.46 208.472 131.642C208.804 131.821 209.063 132.094 209.247 132.46C209.432 132.824 209.524 133.284 209.524 133.841V138H208.518V133.909C208.518 133.395 208.385 132.994 208.118 132.707C207.851 132.418 207.484 132.273 207.018 132.273C206.697 132.273 206.411 132.342 206.158 132.482C205.908 132.621 205.71 132.824 205.565 133.091C205.42 133.358 205.348 133.682 205.348 134.062ZM214.208 131.455V132.307H210.816V131.455H214.208ZM211.805 129.886H212.811V136.125C212.811 136.409 212.852 136.622 212.934 136.764C213.02 136.903 213.127 136.997 213.258 137.045C213.392 137.091 213.532 137.114 213.68 137.114C213.791 137.114 213.882 137.108 213.953 137.097C214.024 137.082 214.081 137.071 214.123 137.062L214.328 137.966C214.26 137.991 214.164 138.017 214.042 138.043C213.92 138.071 213.765 138.085 213.578 138.085C213.294 138.085 213.015 138.024 212.743 137.902C212.473 137.78 212.248 137.594 212.069 137.344C211.893 137.094 211.805 136.778 211.805 136.398V129.886ZM218.395 138.136C217.765 138.136 217.221 137.997 216.763 137.719C216.309 137.438 215.958 137.045 215.711 136.543C215.466 136.037 215.344 135.449 215.344 134.778C215.344 134.108 215.466 133.517 215.711 133.006C215.958 132.491 216.301 132.091 216.742 131.804C217.185 131.514 217.702 131.369 218.293 131.369C218.634 131.369 218.971 131.426 219.303 131.54C219.635 131.653 219.938 131.838 220.211 132.094C220.483 132.347 220.701 132.682 220.863 133.099C221.025 133.517 221.105 134.031 221.105 134.642V135.068H216.06V134.199H220.083C220.083 133.83 220.009 133.5 219.861 133.21C219.716 132.92 219.509 132.692 219.239 132.524C218.972 132.357 218.657 132.273 218.293 132.273C217.892 132.273 217.546 132.372 217.253 132.571C216.963 132.767 216.74 133.023 216.584 133.338C216.428 133.653 216.35 133.991 216.35 134.352V134.932C216.35 135.426 216.435 135.845 216.605 136.189C216.779 136.53 217.019 136.79 217.326 136.969C217.632 137.145 217.989 137.233 218.395 137.233C218.659 137.233 218.898 137.196 219.111 137.122C219.327 137.045 219.513 136.932 219.669 136.781C219.826 136.628 219.946 136.437 220.032 136.21L221.003 136.483C220.901 136.812 220.729 137.102 220.488 137.352C220.246 137.599 219.948 137.793 219.593 137.932C219.238 138.068 218.838 138.136 218.395 138.136ZM223.641 134.062V138H222.635V131.455H223.607V132.477H223.692C223.846 132.145 224.078 131.878 224.391 131.676C224.703 131.472 225.107 131.369 225.601 131.369C226.044 131.369 226.432 131.46 226.765 131.642C227.097 131.821 227.355 132.094 227.54 132.46C227.725 132.824 227.817 133.284 227.817 133.841V138H226.811V133.909C226.811 133.395 226.678 132.994 226.411 132.707C226.144 132.418 225.777 132.273 225.311 132.273C224.99 132.273 224.703 132.342 224.451 132.482C224.201 132.621 224.003 132.824 223.858 133.091C223.713 133.358 223.641 133.682 223.641 134.062ZM232.126 138.136C231.581 138.136 231.099 137.999 230.682 137.723C230.264 137.445 229.938 137.053 229.702 136.547C229.466 136.038 229.348 135.438 229.348 134.744C229.348 134.057 229.466 133.46 229.702 132.955C229.938 132.449 230.266 132.058 230.686 131.783C231.107 131.507 231.592 131.369 232.143 131.369C232.57 131.369 232.906 131.44 233.153 131.582C233.403 131.722 233.594 131.881 233.724 132.06C233.858 132.236 233.962 132.381 234.036 132.494H234.121V129.273H235.126V138H234.155V136.994H234.036C233.962 137.114 233.857 137.264 233.72 137.446C233.584 137.625 233.389 137.786 233.136 137.928C232.884 138.067 232.547 138.136 232.126 138.136ZM232.263 137.233C232.666 137.233 233.007 137.128 233.286 136.918C233.564 136.705 233.776 136.411 233.92 136.036C234.065 135.658 234.138 135.222 234.138 134.727C234.138 134.239 234.067 133.811 233.925 133.445C233.783 133.075 233.572 132.788 233.294 132.584C233.016 132.376 232.672 132.273 232.263 132.273C231.837 132.273 231.482 132.382 231.197 132.601C230.916 132.817 230.705 133.111 230.562 133.483C230.423 133.852 230.354 134.267 230.354 134.727C230.354 135.193 230.425 135.616 230.567 135.997C230.712 136.375 230.925 136.676 231.206 136.901C231.49 137.122 231.842 137.233 232.263 137.233ZM245.392 131.455C245.341 131.023 245.134 130.688 244.77 130.449C244.406 130.21 243.96 130.091 243.432 130.091C243.045 130.091 242.707 130.153 242.418 130.278C242.131 130.403 241.906 130.575 241.744 130.794C241.585 131.013 241.506 131.261 241.506 131.54C241.506 131.773 241.561 131.973 241.672 132.141C241.786 132.305 241.93 132.443 242.107 132.554C242.283 132.662 242.467 132.751 242.661 132.822C242.854 132.891 243.031 132.946 243.193 132.989L244.08 133.227C244.307 133.287 244.56 133.369 244.838 133.474C245.119 133.58 245.388 133.723 245.643 133.905C245.902 134.084 246.115 134.314 246.283 134.595C246.45 134.876 246.534 135.222 246.534 135.631C246.534 136.102 246.411 136.528 246.163 136.909C245.919 137.29 245.561 137.592 245.089 137.817C244.621 138.041 244.051 138.153 243.381 138.153C242.756 138.153 242.214 138.053 241.757 137.851C241.303 137.649 240.945 137.368 240.683 137.007C240.425 136.646 240.278 136.227 240.244 135.75H241.335C241.364 136.08 241.474 136.352 241.668 136.568C241.864 136.781 242.111 136.94 242.409 137.045C242.71 137.148 243.034 137.199 243.381 137.199C243.784 137.199 244.146 137.134 244.467 137.003C244.788 136.869 245.043 136.685 245.23 136.449C245.418 136.21 245.511 135.932 245.511 135.614C245.511 135.324 245.43 135.088 245.268 134.906C245.107 134.724 244.893 134.577 244.629 134.463C244.365 134.349 244.08 134.25 243.773 134.165L242.699 133.858C242.017 133.662 241.477 133.382 241.08 133.018C240.682 132.655 240.483 132.179 240.483 131.591C240.483 131.102 240.615 130.676 240.879 130.312C241.146 129.946 241.504 129.662 241.953 129.46C242.405 129.256 242.909 129.153 243.466 129.153C244.028 129.153 244.528 129.254 244.966 129.456C245.403 129.655 245.75 129.928 246.006 130.274C246.264 130.621 246.401 131.014 246.415 131.455H245.392ZM250.794 138.136C250.203 138.136 249.685 137.996 249.239 137.714C248.796 137.433 248.449 137.04 248.199 136.534C247.952 136.028 247.828 135.437 247.828 134.761C247.828 134.08 247.952 133.484 248.199 132.976C248.449 132.467 248.796 132.072 249.239 131.791C249.685 131.51 250.203 131.369 250.794 131.369C251.385 131.369 251.902 131.51 252.346 131.791C252.792 132.072 253.138 132.467 253.385 132.976C253.635 133.484 253.76 134.08 253.76 134.761C253.76 135.437 253.635 136.028 253.385 136.534C253.138 137.04 252.792 137.433 252.346 137.714C251.902 137.996 251.385 138.136 250.794 138.136ZM250.794 137.233C251.243 137.233 251.613 137.118 251.902 136.888C252.192 136.658 252.407 136.355 252.546 135.98C252.685 135.605 252.755 135.199 252.755 134.761C252.755 134.324 252.685 133.916 252.546 133.538C252.407 133.161 252.192 132.855 251.902 132.622C251.613 132.389 251.243 132.273 250.794 132.273C250.346 132.273 249.976 132.389 249.686 132.622C249.397 132.855 249.182 133.161 249.043 133.538C248.904 133.916 248.834 134.324 248.834 134.761C248.834 135.199 248.904 135.605 249.043 135.98C249.182 136.355 249.397 136.658 249.686 136.888C249.976 137.118 250.346 137.233 250.794 137.233ZM258.21 131.455V132.307H254.682V131.455H258.21ZM255.739 138V130.551C255.739 130.176 255.827 129.864 256.003 129.614C256.179 129.364 256.408 129.176 256.689 129.051C256.97 128.926 257.267 128.864 257.58 128.864C257.827 128.864 258.028 128.884 258.185 128.923C258.341 128.963 258.457 129 258.534 129.034L258.244 129.903C258.193 129.886 258.122 129.865 258.031 129.839C257.943 129.814 257.827 129.801 257.682 129.801C257.349 129.801 257.109 129.885 256.962 130.053C256.817 130.22 256.744 130.466 256.744 130.79V138H255.739ZM262.466 131.455V132.307H259.074V131.455H262.466ZM260.063 129.886H261.069V136.125C261.069 136.409 261.11 136.622 261.192 136.764C261.277 136.903 261.385 136.997 261.516 137.045C261.65 137.091 261.79 137.114 261.938 137.114C262.049 137.114 262.14 137.108 262.211 137.097C262.282 137.082 262.338 137.071 262.381 137.062L262.586 137.966C262.517 137.991 262.422 138.017 262.3 138.043C262.178 138.071 262.023 138.085 261.836 138.085C261.551 138.085 261.273 138.024 261 137.902C260.73 137.78 260.506 137.594 260.327 137.344C260.151 137.094 260.063 136.778 260.063 136.398V129.886ZM265.462 138L263.468 131.455H264.525L265.939 136.466H266.007L267.405 131.455H268.479L269.86 136.449H269.928L271.343 131.455H272.4L270.405 138H269.417L267.985 132.972H267.882L266.451 138H265.462ZM275.655 138.153C275.24 138.153 274.864 138.075 274.526 137.919C274.188 137.76 273.919 137.531 273.721 137.233C273.522 136.932 273.422 136.568 273.422 136.142C273.422 135.767 273.496 135.463 273.644 135.23C273.792 134.994 273.989 134.81 274.236 134.676C274.483 134.543 274.756 134.443 275.054 134.378C275.355 134.31 275.658 134.256 275.962 134.216C276.36 134.165 276.682 134.126 276.929 134.101C277.179 134.072 277.361 134.026 277.475 133.96C277.591 133.895 277.65 133.781 277.65 133.619V133.585C277.65 133.165 277.534 132.838 277.304 132.605C277.077 132.372 276.732 132.256 276.269 132.256C275.789 132.256 275.412 132.361 275.14 132.571C274.867 132.781 274.675 133.006 274.564 133.244L273.61 132.903C273.78 132.506 274.007 132.196 274.292 131.974C274.578 131.75 274.891 131.594 275.229 131.506C275.57 131.415 275.905 131.369 276.235 131.369C276.445 131.369 276.686 131.395 276.959 131.446C277.235 131.494 277.5 131.595 277.756 131.749C278.015 131.902 278.229 132.134 278.4 132.443C278.57 132.753 278.655 133.168 278.655 133.688V138H277.65V137.114H277.598C277.53 137.256 277.417 137.408 277.257 137.57C277.098 137.732 276.887 137.869 276.623 137.983C276.358 138.097 276.036 138.153 275.655 138.153ZM275.809 137.25C276.206 137.25 276.542 137.172 276.814 137.016C277.09 136.859 277.297 136.658 277.436 136.411C277.578 136.163 277.65 135.903 277.65 135.631V134.71C277.607 134.761 277.513 134.808 277.368 134.851C277.226 134.891 277.061 134.926 276.874 134.957C276.689 134.986 276.509 135.011 276.333 135.034C276.159 135.054 276.019 135.071 275.911 135.085C275.65 135.119 275.405 135.175 275.178 135.251C274.953 135.325 274.772 135.437 274.632 135.588C274.496 135.736 274.428 135.937 274.428 136.193C274.428 136.543 274.557 136.807 274.816 136.986C275.077 137.162 275.408 137.25 275.809 137.25ZM280.491 138V131.455H281.462V132.443H281.531C281.65 132.119 281.866 131.857 282.178 131.655C282.491 131.453 282.843 131.352 283.235 131.352C283.309 131.352 283.401 131.354 283.512 131.357C283.623 131.359 283.707 131.364 283.763 131.369V132.392C283.729 132.384 283.651 132.371 283.529 132.354C283.41 132.334 283.283 132.324 283.15 132.324C282.832 132.324 282.548 132.391 282.298 132.524C282.05 132.655 281.854 132.837 281.71 133.07C281.567 133.3 281.496 133.562 281.496 133.858V138H280.491ZM287.501 138.136C286.87 138.136 286.326 137.997 285.869 137.719C285.414 137.438 285.063 137.045 284.816 136.543C284.572 136.037 284.45 135.449 284.45 134.778C284.45 134.108 284.572 133.517 284.816 133.006C285.063 132.491 285.407 132.091 285.847 131.804C286.29 131.514 286.808 131.369 287.398 131.369C287.739 131.369 288.076 131.426 288.408 131.54C288.741 131.653 289.043 131.838 289.316 132.094C289.589 132.347 289.806 132.682 289.968 133.099C290.13 133.517 290.211 134.031 290.211 134.642V135.068H285.165V134.199H289.188C289.188 133.83 289.114 133.5 288.967 133.21C288.822 132.92 288.614 132.692 288.344 132.524C288.077 132.357 287.762 132.273 287.398 132.273C286.998 132.273 286.651 132.372 286.359 132.571C286.069 132.767 285.846 133.023 285.69 133.338C285.533 133.653 285.455 133.991 285.455 134.352V134.932C285.455 135.426 285.54 135.845 285.711 136.189C285.884 136.53 286.124 136.79 286.431 136.969C286.738 137.145 287.094 137.233 287.501 137.233C287.765 137.233 288.004 137.196 288.217 137.122C288.433 137.045 288.619 136.932 288.775 136.781C288.931 136.628 289.052 136.437 289.137 136.21L290.109 136.483C290.006 136.812 289.835 137.102 289.593 137.352C289.352 137.599 289.053 137.793 288.698 137.932C288.343 138.068 287.944 138.136 287.501 138.136ZM295.252 138V129.273H300.519V130.21H296.309V133.159H300.246V134.097H296.309V137.062H300.587V138H295.252ZM303.293 134.062V138H302.288V131.455H303.259V132.477H303.344C303.498 132.145 303.731 131.878 304.043 131.676C304.356 131.472 304.759 131.369 305.254 131.369C305.697 131.369 306.085 131.46 306.417 131.642C306.749 131.821 307.008 132.094 307.192 132.46C307.377 132.824 307.469 133.284 307.469 133.841V138H306.464V133.909C306.464 133.395 306.33 132.994 306.063 132.707C305.796 132.418 305.43 132.273 304.964 132.273C304.643 132.273 304.356 132.342 304.103 132.482C303.853 132.621 303.656 132.824 303.511 133.091C303.366 133.358 303.293 133.682 303.293 134.062ZM311.949 140.591C311.463 140.591 311.046 140.528 310.696 140.403C310.347 140.281 310.056 140.119 309.823 139.918C309.593 139.719 309.409 139.506 309.273 139.278L310.074 138.716C310.165 138.835 310.28 138.972 310.419 139.125C310.559 139.281 310.749 139.416 310.99 139.53C311.235 139.646 311.554 139.705 311.949 139.705C312.478 139.705 312.914 139.577 313.257 139.321C313.601 139.065 313.773 138.665 313.773 138.119V136.79H313.688C313.614 136.909 313.509 137.057 313.373 137.233C313.239 137.406 313.046 137.561 312.793 137.697C312.543 137.831 312.205 137.898 311.779 137.898C311.25 137.898 310.776 137.773 310.355 137.523C309.938 137.273 309.607 136.909 309.363 136.432C309.121 135.955 309 135.375 309 134.693C309 134.023 309.118 133.439 309.354 132.942C309.59 132.442 309.918 132.055 310.338 131.783C310.759 131.507 311.245 131.369 311.796 131.369C312.222 131.369 312.56 131.44 312.81 131.582C313.063 131.722 313.256 131.881 313.39 132.06C313.526 132.236 313.631 132.381 313.705 132.494H313.807V131.455H314.779V138.188C314.779 138.75 314.651 139.207 314.395 139.56C314.142 139.915 313.801 140.175 313.373 140.339C312.946 140.507 312.472 140.591 311.949 140.591ZM311.915 136.994C312.319 136.994 312.659 136.902 312.938 136.717C313.216 136.533 313.428 136.267 313.573 135.92C313.718 135.574 313.79 135.159 313.79 134.676C313.79 134.205 313.719 133.788 313.577 133.428C313.435 133.067 313.225 132.784 312.946 132.58C312.668 132.375 312.324 132.273 311.915 132.273C311.489 132.273 311.134 132.381 310.85 132.597C310.569 132.812 310.357 133.102 310.215 133.466C310.076 133.83 310.006 134.233 310.006 134.676C310.006 135.131 310.077 135.533 310.219 135.882C310.364 136.229 310.577 136.501 310.858 136.7C311.142 136.896 311.495 136.994 311.915 136.994ZM316.62 138V131.455H317.625V138H316.62ZM317.131 130.364C316.935 130.364 316.766 130.297 316.624 130.163C316.485 130.03 316.415 129.869 316.415 129.682C316.415 129.494 316.485 129.334 316.624 129.2C316.766 129.067 316.935 129 317.131 129C317.327 129 317.495 129.067 317.634 129.2C317.776 129.334 317.847 129.494 317.847 129.682C317.847 129.869 317.776 130.03 317.634 130.163C317.495 130.297 317.327 130.364 317.131 130.364ZM320.473 134.062V138H319.467V131.455H320.439V132.477H320.524C320.678 132.145 320.911 131.878 321.223 131.676C321.536 131.472 321.939 131.369 322.433 131.369C322.876 131.369 323.264 131.46 323.597 131.642C323.929 131.821 324.188 132.094 324.372 132.46C324.557 132.824 324.649 133.284 324.649 133.841V138H323.643V133.909C323.643 133.395 323.51 132.994 323.243 132.707C322.976 132.418 322.609 132.273 322.143 132.273C321.822 132.273 321.536 132.342 321.283 132.482C321.033 132.621 320.835 132.824 320.69 133.091C320.545 133.358 320.473 133.682 320.473 134.062ZM329.231 138.136C328.6 138.136 328.056 137.997 327.599 137.719C327.145 137.438 326.794 137.045 326.547 136.543C326.302 136.037 326.18 135.449 326.18 134.778C326.18 134.108 326.302 133.517 326.547 133.006C326.794 132.491 327.137 132.091 327.578 131.804C328.021 131.514 328.538 131.369 329.129 131.369C329.47 131.369 329.806 131.426 330.139 131.54C330.471 131.653 330.774 131.838 331.047 132.094C331.319 132.347 331.537 132.682 331.699 133.099C331.86 133.517 331.941 134.031 331.941 134.642V135.068H326.896V134.199H330.919C330.919 133.83 330.845 133.5 330.697 133.21C330.552 132.92 330.345 132.692 330.075 132.524C329.808 132.357 329.493 132.273 329.129 132.273C328.728 132.273 328.382 132.372 328.089 132.571C327.799 132.767 327.576 133.023 327.42 133.338C327.264 133.653 327.186 133.991 327.186 134.352V134.932C327.186 135.426 327.271 135.845 327.441 136.189C327.615 136.53 327.855 136.79 328.162 136.969C328.468 137.145 328.825 137.233 329.231 137.233C329.495 137.233 329.734 137.196 329.947 137.122C330.163 137.045 330.349 136.932 330.505 136.781C330.662 136.628 330.782 136.437 330.868 136.21L331.839 136.483C331.737 136.812 331.565 137.102 331.324 137.352C331.082 137.599 330.784 137.793 330.429 137.932C330.074 138.068 329.674 138.136 329.231 138.136ZM336.216 138.136C335.585 138.136 335.041 137.997 334.583 137.719C334.129 137.438 333.778 137.045 333.531 136.543C333.287 136.037 333.164 135.449 333.164 134.778C333.164 134.108 333.287 133.517 333.531 133.006C333.778 132.491 334.122 132.091 334.562 131.804C335.005 131.514 335.522 131.369 336.113 131.369C336.454 131.369 336.791 131.426 337.123 131.54C337.456 131.653 337.758 131.838 338.031 132.094C338.304 132.347 338.521 132.682 338.683 133.099C338.845 133.517 338.926 134.031 338.926 134.642V135.068H333.88V134.199H337.903C337.903 133.83 337.829 133.5 337.681 133.21C337.537 132.92 337.329 132.692 337.059 132.524C336.792 132.357 336.477 132.273 336.113 132.273C335.713 132.273 335.366 132.372 335.074 132.571C334.784 132.767 334.561 133.023 334.404 133.338C334.248 133.653 334.17 133.991 334.17 134.352V134.932C334.17 135.426 334.255 135.845 334.426 136.189C334.599 136.53 334.839 136.79 335.146 136.969C335.453 137.145 335.809 137.233 336.216 137.233C336.48 137.233 336.718 137.196 336.931 137.122C337.147 137.045 337.333 136.932 337.49 136.781C337.646 136.628 337.767 136.437 337.852 136.21L338.824 136.483C338.721 136.812 338.549 137.102 338.308 137.352C338.066 137.599 337.768 137.793 337.413 137.932C337.058 138.068 336.659 138.136 336.216 138.136ZM340.456 138V131.455H341.427V132.443H341.495C341.615 132.119 341.831 131.857 342.143 131.655C342.456 131.453 342.808 131.352 343.2 131.352C343.274 131.352 343.366 131.354 343.477 131.357C343.588 131.359 343.672 131.364 343.728 131.369V132.392C343.694 132.384 343.616 132.371 343.494 132.354C343.375 132.334 343.248 132.324 343.115 132.324C342.797 132.324 342.512 132.391 342.262 132.524C342.015 132.655 341.819 132.837 341.674 133.07C341.532 133.3 341.461 133.562 341.461 133.858V138H340.456ZM201.482 147H200.425C200.363 146.696 200.253 146.429 200.097 146.199C199.944 145.969 199.756 145.776 199.534 145.619C199.316 145.46 199.073 145.341 198.806 145.261C198.539 145.182 198.26 145.142 197.971 145.142C197.442 145.142 196.963 145.276 196.534 145.543C196.108 145.81 195.769 146.203 195.516 146.723C195.266 147.243 195.141 147.881 195.141 148.636C195.141 149.392 195.266 150.03 195.516 150.55C195.769 151.07 196.108 151.463 196.534 151.73C196.963 151.997 197.442 152.131 197.971 152.131C198.26 152.131 198.539 152.091 198.806 152.011C199.073 151.932 199.316 151.814 199.534 151.658C199.756 151.499 199.944 151.304 200.097 151.074C200.253 150.841 200.363 150.574 200.425 150.273H201.482C201.402 150.719 201.257 151.118 201.047 151.47C200.837 151.822 200.576 152.122 200.263 152.369C199.951 152.614 199.6 152.8 199.211 152.928C198.824 153.055 198.411 153.119 197.971 153.119C197.226 153.119 196.564 152.938 195.985 152.574C195.405 152.21 194.949 151.693 194.617 151.023C194.284 150.352 194.118 149.557 194.118 148.636C194.118 147.716 194.284 146.92 194.617 146.25C194.949 145.58 195.405 145.062 195.985 144.699C196.564 144.335 197.226 144.153 197.971 144.153C198.411 144.153 198.824 144.217 199.211 144.345C199.6 144.473 199.951 144.661 200.263 144.908C200.576 145.152 200.837 145.45 201.047 145.803C201.257 146.152 201.402 146.551 201.482 147ZM205.712 153.136C205.121 153.136 204.603 152.996 204.157 152.714C203.714 152.433 203.367 152.04 203.117 151.534C202.87 151.028 202.746 150.437 202.746 149.761C202.746 149.08 202.87 148.484 203.117 147.976C203.367 147.467 203.714 147.072 204.157 146.791C204.603 146.51 205.121 146.369 205.712 146.369C206.303 146.369 206.82 146.51 207.263 146.791C207.71 147.072 208.056 147.467 208.303 147.976C208.553 148.484 208.678 149.08 208.678 149.761C208.678 150.437 208.553 151.028 208.303 151.534C208.056 152.04 207.71 152.433 207.263 152.714C206.82 152.996 206.303 153.136 205.712 153.136ZM205.712 152.233C206.161 152.233 206.531 152.118 206.82 151.888C207.11 151.658 207.325 151.355 207.464 150.98C207.603 150.605 207.673 150.199 207.673 149.761C207.673 149.324 207.603 148.916 207.464 148.538C207.325 148.161 207.11 147.855 206.82 147.622C206.531 147.389 206.161 147.273 205.712 147.273C205.263 147.273 204.894 147.389 204.604 147.622C204.315 147.855 204.1 148.161 203.961 148.538C203.822 148.916 203.752 149.324 203.752 149.761C203.752 150.199 203.822 150.605 203.961 150.98C204.1 151.355 204.315 151.658 204.604 151.888C204.894 152.118 205.263 152.233 205.712 152.233ZM211.219 149.062V153H210.213V146.455H211.185V147.477H211.27C211.424 147.145 211.657 146.878 211.969 146.676C212.282 146.472 212.685 146.369 213.179 146.369C213.623 146.369 214.01 146.46 214.343 146.642C214.675 146.821 214.934 147.094 215.118 147.46C215.303 147.824 215.395 148.284 215.395 148.841V153H214.39V148.909C214.39 148.395 214.256 147.994 213.989 147.707C213.722 147.418 213.355 147.273 212.89 147.273C212.569 147.273 212.282 147.342 212.029 147.482C211.779 147.621 211.581 147.824 211.436 148.091C211.292 148.358 211.219 148.682 211.219 149.062ZM221.869 147.92L220.966 148.176C220.909 148.026 220.825 147.879 220.714 147.737C220.607 147.592 220.459 147.473 220.271 147.379C220.084 147.286 219.844 147.239 219.551 147.239C219.151 147.239 218.817 147.331 218.55 147.516C218.286 147.697 218.153 147.929 218.153 148.21C218.153 148.46 218.244 148.658 218.426 148.803C218.608 148.947 218.892 149.068 219.278 149.165L220.25 149.403C220.835 149.545 221.271 149.763 221.558 150.055C221.845 150.345 221.989 150.719 221.989 151.176C221.989 151.551 221.881 151.886 221.665 152.182C221.452 152.477 221.153 152.71 220.77 152.881C220.386 153.051 219.94 153.136 219.432 153.136C218.764 153.136 218.212 152.991 217.774 152.702C217.337 152.412 217.06 151.989 216.943 151.432L217.898 151.193C217.989 151.545 218.161 151.81 218.413 151.986C218.669 152.162 219.003 152.25 219.415 152.25C219.884 152.25 220.256 152.151 220.531 151.952C220.81 151.75 220.949 151.509 220.949 151.227C220.949 151 220.869 150.81 220.71 150.656C220.551 150.5 220.307 150.384 219.977 150.307L218.886 150.051C218.287 149.909 217.847 149.689 217.565 149.391C217.287 149.089 217.148 148.713 217.148 148.261C217.148 147.892 217.251 147.565 217.459 147.281C217.669 146.997 217.955 146.774 218.315 146.612C218.679 146.45 219.091 146.369 219.551 146.369C220.199 146.369 220.707 146.511 221.077 146.795C221.449 147.08 221.713 147.455 221.869 147.92ZM227.627 150.324V146.455H228.633V153H227.627V151.892H227.559C227.406 152.224 227.167 152.507 226.843 152.74C226.52 152.97 226.11 153.085 225.616 153.085C225.207 153.085 224.843 152.996 224.525 152.817C224.207 152.635 223.957 152.362 223.775 151.999C223.593 151.632 223.502 151.17 223.502 150.614V146.455H224.508V150.545C224.508 151.023 224.642 151.403 224.909 151.688C225.179 151.972 225.522 152.114 225.94 152.114C226.19 152.114 226.444 152.05 226.703 151.922C226.964 151.794 227.183 151.598 227.359 151.334C227.538 151.07 227.627 150.733 227.627 150.324ZM231.481 144.273V153H230.475V144.273H231.481ZM236.169 146.455V147.307H232.777V146.455H236.169ZM233.766 144.886H234.772V151.125C234.772 151.409 234.813 151.622 234.895 151.764C234.98 151.903 235.088 151.997 235.219 152.045C235.353 152.091 235.493 152.114 235.641 152.114C235.752 152.114 235.843 152.108 235.914 152.097C235.985 152.082 236.042 152.071 236.084 152.062L236.289 152.966C236.221 152.991 236.125 153.017 236.003 153.043C235.881 153.071 235.726 153.085 235.539 153.085C235.255 153.085 234.976 153.024 234.703 152.902C234.434 152.78 234.209 152.594 234.03 152.344C233.854 152.094 233.766 151.778 233.766 151.398V144.886ZM239.608 153.153C239.194 153.153 238.817 153.075 238.479 152.919C238.141 152.76 237.873 152.531 237.674 152.233C237.475 151.932 237.375 151.568 237.375 151.142C237.375 150.767 237.449 150.463 237.597 150.23C237.745 149.994 237.942 149.81 238.189 149.676C238.436 149.543 238.709 149.443 239.007 149.378C239.309 149.31 239.611 149.256 239.915 149.216C240.313 149.165 240.635 149.126 240.882 149.101C241.132 149.072 241.314 149.026 241.428 148.96C241.544 148.895 241.603 148.781 241.603 148.619V148.585C241.603 148.165 241.488 147.838 241.257 147.605C241.03 147.372 240.685 147.256 240.222 147.256C239.742 147.256 239.365 147.361 239.093 147.571C238.82 147.781 238.628 148.006 238.517 148.244L237.563 147.903C237.733 147.506 237.961 147.196 238.245 146.974C238.532 146.75 238.844 146.594 239.182 146.506C239.523 146.415 239.858 146.369 240.188 146.369C240.398 146.369 240.64 146.395 240.912 146.446C241.188 146.494 241.453 146.595 241.709 146.749C241.968 146.902 242.182 147.134 242.353 147.443C242.523 147.753 242.608 148.168 242.608 148.688V153H241.603V152.114H241.551C241.483 152.256 241.37 152.408 241.211 152.57C241.051 152.732 240.84 152.869 240.576 152.983C240.311 153.097 239.989 153.153 239.608 153.153ZM239.762 152.25C240.159 152.25 240.495 152.172 240.767 152.016C241.043 151.859 241.25 151.658 241.39 151.411C241.532 151.163 241.603 150.903 241.603 150.631V149.71C241.56 149.761 241.466 149.808 241.321 149.851C241.179 149.891 241.015 149.926 240.827 149.957C240.642 149.986 240.462 150.011 240.286 150.034C240.113 150.054 239.972 150.071 239.864 150.085C239.603 150.119 239.358 150.175 239.131 150.251C238.907 150.325 238.725 150.437 238.586 150.588C238.449 150.736 238.381 150.937 238.381 151.193C238.381 151.543 238.51 151.807 238.769 151.986C239.03 152.162 239.361 152.25 239.762 152.25ZM245.45 149.062V153H244.444V146.455H245.415V147.477H245.501C245.654 147.145 245.887 146.878 246.2 146.676C246.512 146.472 246.915 146.369 247.41 146.369C247.853 146.369 248.241 146.46 248.573 146.642C248.906 146.821 249.164 147.094 249.349 147.46C249.533 147.824 249.626 148.284 249.626 148.841V153H248.62V148.909C248.62 148.395 248.487 147.994 248.219 147.707C247.952 147.418 247.586 147.273 247.12 147.273C246.799 147.273 246.512 147.342 246.259 147.482C246.009 147.621 245.812 147.824 245.667 148.091C245.522 148.358 245.45 148.682 245.45 149.062ZM254.31 146.455V147.307H250.918V146.455H254.31ZM251.907 144.886H252.912V151.125C252.912 151.409 252.953 151.622 253.036 151.764C253.121 151.903 253.229 151.997 253.36 152.045C253.493 152.091 253.634 152.114 253.782 152.114C253.892 152.114 253.983 152.108 254.054 152.097C254.125 152.082 254.182 152.071 254.225 152.062L254.429 152.966C254.361 152.991 254.266 153.017 254.144 153.043C254.022 153.071 253.867 153.085 253.679 153.085C253.395 153.085 253.117 153.024 252.844 152.902C252.574 152.78 252.35 152.594 252.171 152.344C251.995 152.094 251.907 151.778 251.907 151.398V144.886ZM261.124 153.153C260.709 153.153 260.333 153.075 259.995 152.919C259.657 152.76 259.388 152.531 259.189 152.233C258.99 151.932 258.891 151.568 258.891 151.142C258.891 150.767 258.965 150.463 259.113 150.23C259.26 149.994 259.458 149.81 259.705 149.676C259.952 149.543 260.225 149.443 260.523 149.378C260.824 149.31 261.127 149.256 261.431 149.216C261.828 149.165 262.151 149.126 262.398 149.101C262.648 149.072 262.83 149.026 262.944 148.96C263.06 148.895 263.118 148.781 263.118 148.619V148.585C263.118 148.165 263.003 147.838 262.773 147.605C262.546 147.372 262.201 147.256 261.738 147.256C261.257 147.256 260.881 147.361 260.608 147.571C260.336 147.781 260.144 148.006 260.033 148.244L259.078 147.903C259.249 147.506 259.476 147.196 259.76 146.974C260.047 146.75 260.36 146.594 260.698 146.506C261.039 146.415 261.374 146.369 261.703 146.369C261.914 146.369 262.155 146.395 262.428 146.446C262.703 146.494 262.969 146.595 263.225 146.749C263.483 146.902 263.698 147.134 263.868 147.443C264.039 147.753 264.124 148.168 264.124 148.688V153H263.118V152.114H263.067C262.999 152.256 262.885 152.408 262.726 152.57C262.567 152.732 262.355 152.869 262.091 152.983C261.827 153.097 261.505 153.153 261.124 153.153ZM261.277 152.25C261.675 152.25 262.01 152.172 262.283 152.016C262.559 151.859 262.766 151.658 262.905 151.411C263.047 151.163 263.118 150.903 263.118 150.631V149.71C263.076 149.761 262.982 149.808 262.837 149.851C262.695 149.891 262.53 149.926 262.343 149.957C262.158 149.986 261.978 150.011 261.801 150.034C261.628 150.054 261.488 150.071 261.38 150.085C261.118 150.119 260.874 150.175 260.647 150.251C260.422 150.325 260.24 150.437 260.101 150.588C259.965 150.736 259.897 150.937 259.897 151.193C259.897 151.543 260.026 151.807 260.284 151.986C260.546 152.162 260.877 152.25 261.277 152.25ZM266.965 149.062V153H265.96V146.455H266.931V147.477H267.016C267.17 147.145 267.403 146.878 267.715 146.676C268.028 146.472 268.431 146.369 268.925 146.369C269.369 146.369 269.756 146.46 270.089 146.642C270.421 146.821 270.68 147.094 270.864 147.46C271.049 147.824 271.141 148.284 271.141 148.841V153H270.136V148.909C270.136 148.395 270.002 147.994 269.735 147.707C269.468 147.418 269.102 147.273 268.636 147.273C268.315 147.273 268.028 147.342 267.775 147.482C267.525 147.621 267.327 147.824 267.183 148.091C267.038 148.358 266.965 148.682 266.965 149.062ZM275.451 153.136C274.905 153.136 274.424 152.999 274.006 152.723C273.588 152.445 273.262 152.053 273.026 151.547C272.79 151.038 272.672 150.438 272.672 149.744C272.672 149.057 272.79 148.46 273.026 147.955C273.262 147.449 273.59 147.058 274.01 146.783C274.431 146.507 274.917 146.369 275.468 146.369C275.894 146.369 276.23 146.44 276.478 146.582C276.728 146.722 276.918 146.881 277.049 147.06C277.182 147.236 277.286 147.381 277.36 147.494H277.445V144.273H278.451V153H277.479V151.994H277.36C277.286 152.114 277.181 152.264 277.044 152.446C276.908 152.625 276.713 152.786 276.461 152.928C276.208 153.067 275.871 153.136 275.451 153.136ZM275.587 152.233C275.99 152.233 276.331 152.128 276.61 151.918C276.888 151.705 277.1 151.411 277.245 151.036C277.39 150.658 277.462 150.222 277.462 149.727C277.462 149.239 277.391 148.811 277.249 148.445C277.107 148.075 276.897 147.788 276.618 147.584C276.34 147.376 275.996 147.273 275.587 147.273C275.161 147.273 274.806 147.382 274.522 147.601C274.24 147.817 274.029 148.111 273.887 148.483C273.748 148.852 273.678 149.267 273.678 149.727C273.678 150.193 273.749 150.616 273.891 150.997C274.036 151.375 274.249 151.676 274.53 151.901C274.814 152.122 275.167 152.233 275.587 152.233ZM290.966 147H289.909C289.847 146.696 289.738 146.429 289.581 146.199C289.428 145.969 289.24 145.776 289.019 145.619C288.8 145.46 288.557 145.341 288.29 145.261C288.023 145.182 287.745 145.142 287.455 145.142C286.926 145.142 286.448 145.276 286.019 145.543C285.593 145.81 285.253 146.203 285 146.723C284.75 147.243 284.625 147.881 284.625 148.636C284.625 149.392 284.75 150.03 285 150.55C285.253 151.07 285.593 151.463 286.019 151.73C286.448 151.997 286.926 152.131 287.455 152.131C287.745 152.131 288.023 152.091 288.29 152.011C288.557 151.932 288.8 151.814 289.019 151.658C289.24 151.499 289.428 151.304 289.581 151.074C289.738 150.841 289.847 150.574 289.909 150.273H290.966C290.887 150.719 290.742 151.118 290.532 151.47C290.321 151.822 290.06 152.122 289.748 152.369C289.435 152.614 289.084 152.8 288.695 152.928C288.309 153.055 287.895 153.119 287.455 153.119C286.711 153.119 286.049 152.938 285.469 152.574C284.89 152.21 284.434 151.693 284.101 151.023C283.769 150.352 283.603 149.557 283.603 148.636C283.603 147.716 283.769 146.92 284.101 146.25C284.434 145.58 284.89 145.062 285.469 144.699C286.049 144.335 286.711 144.153 287.455 144.153C287.895 144.153 288.309 144.217 288.695 144.345C289.084 144.473 289.435 144.661 289.748 144.908C290.06 145.152 290.321 145.45 290.532 145.803C290.742 146.152 290.887 146.551 290.966 147ZM295.197 153.136C294.606 153.136 294.087 152.996 293.641 152.714C293.198 152.433 292.852 152.04 292.602 151.534C292.354 151.028 292.231 150.437 292.231 149.761C292.231 149.08 292.354 148.484 292.602 147.976C292.852 147.467 293.198 147.072 293.641 146.791C294.087 146.51 294.606 146.369 295.197 146.369C295.788 146.369 296.305 146.51 296.748 146.791C297.194 147.072 297.54 147.467 297.788 147.976C298.038 148.484 298.163 149.08 298.163 149.761C298.163 150.437 298.038 151.028 297.788 151.534C297.54 152.04 297.194 152.433 296.748 152.714C296.305 152.996 295.788 153.136 295.197 153.136ZM295.197 152.233C295.646 152.233 296.015 152.118 296.305 151.888C296.594 151.658 296.809 151.355 296.948 150.98C297.087 150.605 297.157 150.199 297.157 149.761C297.157 149.324 297.087 148.916 296.948 148.538C296.809 148.161 296.594 147.855 296.305 147.622C296.015 147.389 295.646 147.273 295.197 147.273C294.748 147.273 294.379 147.389 294.089 147.622C293.799 147.855 293.585 148.161 293.445 148.538C293.306 148.916 293.237 149.324 293.237 149.761C293.237 150.199 293.306 150.605 293.445 150.98C293.585 151.355 293.799 151.658 294.089 151.888C294.379 152.118 294.748 152.233 295.197 152.233ZM300.703 149.062V153H299.698V146.455H300.669V147.477H300.755C300.908 147.145 301.141 146.878 301.453 146.676C301.766 146.472 302.169 146.369 302.664 146.369C303.107 146.369 303.495 146.46 303.827 146.642C304.159 146.821 304.418 147.094 304.603 147.46C304.787 147.824 304.88 148.284 304.88 148.841V153H303.874V148.909C303.874 148.395 303.74 147.994 303.473 147.707C303.206 147.418 302.84 147.273 302.374 147.273C302.053 147.273 301.766 147.342 301.513 147.482C301.263 147.621 301.066 147.824 300.921 148.091C300.776 148.358 300.703 148.682 300.703 149.062ZM309.564 146.455V147.307H306.172V146.455H309.564ZM307.161 144.886H308.166V151.125C308.166 151.409 308.207 151.622 308.29 151.764C308.375 151.903 308.483 151.997 308.614 152.045C308.747 152.091 308.888 152.114 309.036 152.114C309.146 152.114 309.237 152.108 309.308 152.097C309.379 152.082 309.436 152.071 309.479 152.062L309.683 152.966C309.615 152.991 309.52 153.017 309.398 153.043C309.276 153.071 309.121 153.085 308.933 153.085C308.649 153.085 308.371 153.024 308.098 152.902C307.828 152.78 307.604 152.594 307.425 152.344C307.249 152.094 307.161 151.778 307.161 151.398V144.886ZM311.077 153V146.455H312.048V147.443H312.116C312.236 147.119 312.452 146.857 312.764 146.655C313.077 146.453 313.429 146.352 313.821 146.352C313.895 146.352 313.987 146.354 314.098 146.357C314.209 146.359 314.293 146.364 314.349 146.369V147.392C314.315 147.384 314.237 147.371 314.115 147.354C313.996 147.334 313.869 147.324 313.736 147.324C313.418 147.324 313.134 147.391 312.884 147.524C312.636 147.655 312.44 147.837 312.295 148.07C312.153 148.3 312.082 148.562 312.082 148.858V153H311.077ZM317.468 153.153C317.053 153.153 316.676 153.075 316.338 152.919C316 152.76 315.732 152.531 315.533 152.233C315.334 151.932 315.235 151.568 315.235 151.142C315.235 150.767 315.309 150.463 315.456 150.23C315.604 149.994 315.801 149.81 316.049 149.676C316.296 149.543 316.569 149.443 316.867 149.378C317.168 149.31 317.471 149.256 317.775 149.216C318.172 149.165 318.495 149.126 318.742 149.101C318.992 149.072 319.174 149.026 319.287 148.96C319.404 148.895 319.462 148.781 319.462 148.619V148.585C319.462 148.165 319.347 147.838 319.117 147.605C318.89 147.372 318.544 147.256 318.081 147.256C317.601 147.256 317.225 147.361 316.952 147.571C316.679 147.781 316.488 148.006 316.377 148.244L315.422 147.903C315.593 147.506 315.82 147.196 316.104 146.974C316.391 146.75 316.703 146.594 317.042 146.506C317.382 146.415 317.718 146.369 318.047 146.369C318.257 146.369 318.499 146.395 318.772 146.446C319.047 146.494 319.313 146.595 319.569 146.749C319.827 146.902 320.042 147.134 320.212 147.443C320.382 147.753 320.468 148.168 320.468 148.688V153H319.462V152.114H319.411C319.343 152.256 319.229 152.408 319.07 152.57C318.911 152.732 318.699 152.869 318.435 152.983C318.171 153.097 317.848 153.153 317.468 153.153ZM317.621 152.25C318.019 152.25 318.354 152.172 318.627 152.016C318.902 151.859 319.11 151.658 319.249 151.411C319.391 151.163 319.462 150.903 319.462 150.631V149.71C319.419 149.761 319.326 149.808 319.181 149.851C319.039 149.891 318.874 149.926 318.686 149.957C318.502 149.986 318.321 150.011 318.145 150.034C317.972 150.054 317.831 150.071 317.723 150.085C317.462 150.119 317.218 150.175 316.99 150.251C316.766 150.325 316.584 150.437 316.445 150.588C316.309 150.736 316.24 150.937 316.24 151.193C316.24 151.543 316.37 151.807 316.628 151.986C316.89 152.162 317.221 152.25 317.621 152.25ZM324.962 153.136C324.349 153.136 323.82 152.991 323.377 152.702C322.934 152.412 322.593 152.013 322.354 151.504C322.116 150.996 321.996 150.415 321.996 149.761C321.996 149.097 322.119 148.51 322.363 148.001C322.61 147.49 322.954 147.091 323.394 146.804C323.837 146.514 324.354 146.369 324.945 146.369C325.406 146.369 325.82 146.455 326.19 146.625C326.559 146.795 326.862 147.034 327.097 147.341C327.333 147.648 327.479 148.006 327.536 148.415H326.531C326.454 148.116 326.283 147.852 326.019 147.622C325.758 147.389 325.406 147.273 324.962 147.273C324.57 147.273 324.227 147.375 323.931 147.58C323.638 147.781 323.41 148.067 323.245 148.436C323.083 148.803 323.002 149.233 323.002 149.727C323.002 150.233 323.082 150.673 323.241 151.048C323.403 151.423 323.63 151.714 323.923 151.922C324.218 152.129 324.565 152.233 324.962 152.233C325.224 152.233 325.461 152.188 325.674 152.097C325.887 152.006 326.067 151.875 326.215 151.705C326.363 151.534 326.468 151.33 326.531 151.091H327.536C327.479 151.477 327.339 151.825 327.114 152.135C326.893 152.442 326.599 152.686 326.232 152.868C325.869 153.047 325.445 153.136 324.962 153.136ZM331.853 146.455V147.307H328.461V146.455H331.853ZM329.45 144.886H330.455V151.125C330.455 151.409 330.496 151.622 330.579 151.764C330.664 151.903 330.772 151.997 330.903 152.045C331.036 152.091 331.177 152.114 331.325 152.114C331.435 152.114 331.526 152.108 331.597 152.097C331.668 152.082 331.725 152.071 331.768 152.062L331.972 152.966C331.904 152.991 331.809 153.017 331.687 153.043C331.565 153.071 331.41 153.085 331.222 153.085C330.938 153.085 330.66 153.024 330.387 152.902C330.117 152.78 329.893 152.594 329.714 152.344C329.538 152.094 329.45 151.778 329.45 151.398V144.886ZM335.955 153.136C335.364 153.136 334.845 152.996 334.399 152.714C333.956 152.433 333.609 152.04 333.359 151.534C333.112 151.028 332.989 150.437 332.989 149.761C332.989 149.08 333.112 148.484 333.359 147.976C333.609 147.467 333.956 147.072 334.399 146.791C334.845 146.51 335.364 146.369 335.955 146.369C336.545 146.369 337.063 146.51 337.506 146.791C337.952 147.072 338.298 147.467 338.545 147.976C338.795 148.484 338.92 149.08 338.92 149.761C338.92 150.437 338.795 151.028 338.545 151.534C338.298 152.04 337.952 152.433 337.506 152.714C337.063 152.996 336.545 153.136 335.955 153.136ZM335.955 152.233C336.403 152.233 336.773 152.118 337.062 151.888C337.352 151.658 337.567 151.355 337.706 150.98C337.845 150.605 337.915 150.199 337.915 149.761C337.915 149.324 337.845 148.916 337.706 148.538C337.567 148.161 337.352 147.855 337.062 147.622C336.773 147.389 336.403 147.273 335.955 147.273C335.506 147.273 335.136 147.389 334.847 147.622C334.557 147.855 334.342 148.161 334.203 148.538C334.064 148.916 333.994 149.324 333.994 149.761C333.994 150.199 334.064 150.605 334.203 150.98C334.342 151.355 334.557 151.658 334.847 151.888C335.136 152.118 335.506 152.233 335.955 152.233ZM340.456 153V146.455H341.427V147.443H341.495C341.615 147.119 341.831 146.857 342.143 146.655C342.456 146.453 342.808 146.352 343.2 146.352C343.274 146.352 343.366 146.354 343.477 146.357C343.588 146.359 343.672 146.364 343.728 146.369V147.392C343.694 147.384 343.616 147.371 343.494 147.354C343.375 147.334 343.248 147.324 343.115 147.324C342.797 147.324 342.512 147.391 342.262 147.524C342.015 147.655 341.819 147.837 341.674 148.07C341.532 148.3 341.461 148.562 341.461 148.858V153H340.456Z"
    fill="black" />
  <path
    d="M31.7822 23.6475H19.9434V56H12.5078V23.6475H0.827148V17.6094H31.7822V23.6475ZM38.2158 27.4707H53.7461V50.041H61.4717V56H38.2158V50.041H46.3369V33.4561H38.2158V27.4707ZM45.8096 20.167C45.8096 19.6045 45.9062 19.0859 46.0996 18.6113C46.3105 18.1191 46.6006 17.6973 46.9697 17.3457C47.3389 17.0117 47.7783 16.748 48.2881 16.5547C48.8154 16.3613 49.3955 16.2646 50.0283 16.2646C51.3291 16.2646 52.3574 16.6338 53.1133 17.3721C53.8867 18.0928 54.2734 19.0244 54.2734 20.167C54.2734 21.3096 53.8867 22.25 53.1133 22.9883C52.3574 23.709 51.3291 24.0693 50.0283 24.0693C49.3955 24.0693 48.8154 23.9727 48.2881 23.7793C47.7783 23.5859 47.3389 23.3135 46.9697 22.9619C46.6006 22.6279 46.3105 22.2236 46.0996 21.749C45.9062 21.2568 45.8096 20.7295 45.8096 20.167ZM73.2578 27.4707L73.4688 30.9248C74.0137 29.6943 74.7607 28.7275 75.71 28.0244C76.6768 27.3037 77.8457 26.9434 79.2168 26.9434C79.8848 26.9434 80.4824 27.0225 81.0098 27.1807C81.5371 27.3389 81.9941 27.585 82.3809 27.9189C82.6797 28.165 82.9346 28.4639 83.1455 28.8154C83.374 29.1494 83.5674 29.5361 83.7256 29.9756C83.9717 29.5537 84.2441 29.1758 84.543 28.8418C84.8594 28.4902 85.2021 28.1914 85.5713 27.9453C86.0283 27.6289 86.5469 27.3828 87.127 27.207C87.707 27.0312 88.3398 26.9434 89.0254 26.9434C89.8867 26.9434 90.6865 27.1016 91.4248 27.418C92.1807 27.7344 92.8398 28.2354 93.4023 28.9209C93.9473 29.624 94.3691 30.5293 94.668 31.6367C94.9844 32.7266 95.1426 34.0625 95.1426 35.6445V56H88.4717V35.6182C88.4717 35.0732 88.4102 34.625 88.2871 34.2734C88.1816 33.9219 88.0322 33.6406 87.8389 33.4297C87.6455 33.2363 87.417 33.1045 87.1533 33.0342C86.9072 32.9463 86.6523 32.9023 86.3887 32.9023C86.1074 32.9023 85.8525 32.9375 85.624 33.0078C85.4131 33.0781 85.2109 33.1748 85.0176 33.2979C84.8594 33.4209 84.7188 33.5615 84.5957 33.7197C84.4727 33.8604 84.3672 34.0273 84.2793 34.2207C84.2793 34.2559 84.2793 34.335 84.2793 34.458C84.2793 34.5811 84.2793 34.748 84.2793 34.959V56H77.8193V35.5918C77.8193 35.0469 77.7666 34.5986 77.6611 34.2471C77.5557 33.8955 77.415 33.623 77.2393 33.4297C77.0459 33.2363 76.8262 33.1045 76.5801 33.0342C76.334 32.9463 76.0703 32.9023 75.7891 32.9023C75.4727 32.9023 75.1914 32.9551 74.9453 33.0605C74.6992 33.166 74.4795 33.3154 74.2861 33.5088C74.1455 33.6494 74.0225 33.8164 73.917 34.0098C73.8115 34.2031 73.7148 34.4141 73.627 34.6426V56H66.9561V27.4707H73.2578ZM153.229 45.9805C153.229 45.2949 153.106 44.6533 152.86 44.0557C152.632 43.458 152.236 42.8955 151.674 42.3682C151.094 41.8584 150.338 41.3926 149.406 40.9707C148.492 40.5312 147.35 40.127 145.979 39.7578C143.852 39.1777 141.979 38.4746 140.362 37.6484C138.763 36.8223 137.453 35.917 136.434 34.9326C135.414 33.9482 134.641 32.8584 134.113 31.6631C133.604 30.4678 133.349 29.167 133.349 27.7607C133.349 26.1436 133.691 24.6758 134.377 23.3574C135.062 22.0391 136.012 20.9141 137.225 19.9824C138.438 19.0508 139.87 18.3389 141.522 17.8467C143.175 17.3369 144.968 17.082 146.901 17.082C148.905 17.082 150.733 17.3721 152.386 17.9521C154.056 18.5322 155.488 19.3408 156.684 20.3779C157.879 21.4326 158.811 22.6807 159.479 24.1221C160.146 25.5635 160.48 27.1455 160.48 28.8682H153.256C153.221 28.0068 153.062 27.2158 152.781 26.4951C152.518 25.7744 152.122 25.1504 151.595 24.623C151.05 24.1133 150.373 23.7178 149.564 23.4365C148.773 23.1377 147.842 22.9883 146.77 22.9883C145.785 22.9883 144.906 23.1113 144.133 23.3574C143.377 23.5859 142.735 23.9111 142.208 24.333C141.681 24.7725 141.276 25.291 140.995 25.8887C140.731 26.4688 140.6 27.1016 140.6 27.7871C140.6 28.5078 140.775 29.1582 141.127 29.7383C141.496 30.3184 142.023 30.8369 142.709 31.2939C143.395 31.7686 144.221 32.1992 145.188 32.5859C146.172 32.9727 147.279 33.333 148.51 33.667C149.828 34.0361 151.085 34.4844 152.28 35.0117C153.476 35.5391 154.574 36.1455 155.576 36.8311C157.088 37.9561 158.292 39.2656 159.188 40.7598C160.085 42.2539 160.533 43.9766 160.533 45.9277C160.533 47.6152 160.19 49.1182 159.505 50.4365C158.837 51.7373 157.905 52.8359 156.71 53.7324C155.515 54.6465 154.091 55.3408 152.438 55.8154C150.786 56.2725 148.984 56.501 147.033 56.501C145.117 56.501 143.219 56.2197 141.338 55.6572C139.475 55.0771 137.849 54.2334 136.46 53.126C135.142 52.0361 134.096 50.7529 133.322 49.2764C132.566 47.7998 132.188 46.0684 132.188 44.082H139.466C139.501 45.2422 139.703 46.2354 140.072 47.0615C140.441 47.8877 140.96 48.5645 141.628 49.0918C142.278 49.6191 143.061 50.0059 143.975 50.252C144.906 50.498 145.926 50.6211 147.033 50.6211C148.018 50.6211 148.888 50.5068 149.644 50.2783C150.417 50.0498 151.067 49.7334 151.595 49.3291C152.122 48.9248 152.526 48.4414 152.808 47.8789C153.089 47.2988 153.229 46.666 153.229 45.9805ZM170.553 27.4707L170.764 30.9248C171.309 29.6943 172.056 28.7275 173.005 28.0244C173.972 27.3037 175.141 26.9434 176.512 26.9434C177.18 26.9434 177.777 27.0225 178.305 27.1807C178.832 27.3389 179.289 27.585 179.676 27.9189C179.975 28.165 180.229 28.4639 180.44 28.8154C180.669 29.1494 180.862 29.5361 181.021 29.9756C181.267 29.5537 181.539 29.1758 181.838 28.8418C182.154 28.4902 182.497 28.1914 182.866 27.9453C183.323 27.6289 183.842 27.3828 184.422 27.207C185.002 27.0312 185.635 26.9434 186.32 26.9434C187.182 26.9434 187.981 27.1016 188.72 27.418C189.476 27.7344 190.135 28.2354 190.697 28.9209C191.242 29.624 191.664 30.5293 191.963 31.6367C192.279 32.7266 192.438 34.0625 192.438 35.6445V56H185.767V35.6182C185.767 35.0732 185.705 34.625 185.582 34.2734C185.477 33.9219 185.327 33.6406 185.134 33.4297C184.94 33.2363 184.712 33.1045 184.448 33.0342C184.202 32.9463 183.947 32.9023 183.684 32.9023C183.402 32.9023 183.147 32.9375 182.919 33.0078C182.708 33.0781 182.506 33.1748 182.312 33.2979C182.154 33.4209 182.014 33.5615 181.891 33.7197C181.768 33.8604 181.662 34.0273 181.574 34.2207C181.574 34.2559 181.574 34.335 181.574 34.458C181.574 34.5811 181.574 34.748 181.574 34.959V56H175.114V35.5918C175.114 35.0469 175.062 34.5986 174.956 34.2471C174.851 33.8955 174.71 33.623 174.534 33.4297C174.341 33.2363 174.121 33.1045 173.875 33.0342C173.629 32.9463 173.365 32.9023 173.084 32.9023C172.768 32.9023 172.486 32.9551 172.24 33.0605C171.994 33.166 171.774 33.3154 171.581 33.5088C171.44 33.6494 171.317 33.8164 171.212 34.0098C171.106 34.2031 171.01 34.4141 170.922 34.6426V56H164.251V27.4707H170.553ZM216.247 56C216.071 55.6484 215.922 55.2441 215.799 54.7871C215.676 54.3301 215.57 53.8467 215.482 53.3369C215.078 53.7764 214.612 54.1895 214.085 54.5762C213.558 54.9629 212.978 55.2969 212.345 55.5781C211.694 55.877 210.982 56.1055 210.209 56.2637C209.436 56.4395 208.601 56.5273 207.704 56.5273C206.245 56.5273 204.9 56.3164 203.67 55.8945C202.457 55.4727 201.411 54.8838 200.532 54.1279C199.653 53.3721 198.968 52.4756 198.476 51.4385C197.983 50.3838 197.737 49.2412 197.737 48.0107C197.737 46.4287 198.045 45.0312 198.66 43.8184C199.275 42.5879 200.198 41.5771 201.429 40.7861C202.536 40.0654 203.898 39.5205 205.516 39.1514C207.15 38.7646 209.022 38.5713 211.132 38.5713H215.219V36.8838C215.219 36.2158 215.113 35.6182 214.902 35.0908C214.691 34.5459 214.375 34.0801 213.953 33.6934C213.514 33.2891 212.96 32.9814 212.292 32.7705C211.642 32.542 210.877 32.4277 209.998 32.4277C209.225 32.4277 208.557 32.5244 207.994 32.7178C207.432 32.8936 206.975 33.1484 206.623 33.4824C206.307 33.7812 206.069 34.1416 205.911 34.5635C205.771 34.9854 205.7 35.4512 205.7 35.9609H198.37C198.37 34.748 198.634 33.5967 199.161 32.5068C199.706 31.417 200.497 30.459 201.534 29.6328C202.554 28.8066 203.802 28.1562 205.278 27.6816C206.772 27.1895 208.478 26.9434 210.394 26.9434C212.116 26.9434 213.716 27.1543 215.192 27.5762C216.687 27.998 217.979 28.6221 219.068 29.4482C220.158 30.2744 221.011 31.3203 221.626 32.5859C222.241 33.834 222.549 35.2842 222.549 36.9365V49.1709C222.549 50.7002 222.646 51.9658 222.839 52.9678C223.032 53.9697 223.313 54.8311 223.683 55.5518V56H216.247ZM209.26 50.8584C209.998 50.8584 210.684 50.7705 211.316 50.5947C211.949 50.4189 212.521 50.1904 213.03 49.9092C213.54 49.6279 213.979 49.3115 214.349 48.96C214.718 48.5908 215.008 48.2217 215.219 47.8525V42.9482H211.475C210.332 42.9482 209.356 43.0625 208.548 43.291C207.739 43.502 207.08 43.8008 206.57 44.1875C206.061 44.5918 205.683 45.0752 205.437 45.6377C205.19 46.1826 205.067 46.7803 205.067 47.4307C205.067 47.9404 205.155 48.415 205.331 48.8545C205.524 49.2764 205.797 49.6367 206.148 49.9355C206.5 50.2168 206.931 50.4453 207.44 50.6211C207.968 50.7793 208.574 50.8584 209.26 50.8584ZM251.342 26.9434C252.449 26.9434 253.469 27.0225 254.4 27.1807C255.35 27.3213 256.114 27.4795 256.694 27.6553L255.613 34.959C254.646 34.7305 253.653 34.5635 252.634 34.458C251.632 34.335 250.674 34.2734 249.76 34.2734C248.811 34.2734 247.949 34.3613 247.176 34.5371C246.42 34.6953 245.743 34.9414 245.146 35.2754C244.425 35.6621 243.81 36.1543 243.3 36.752C242.79 37.3496 242.368 38.0527 242.034 38.8613V56H234.704V27.4707H241.533L241.823 31.5049L241.876 32.1377C243.036 30.5205 244.425 29.2549 246.042 28.3408C247.659 27.4092 249.426 26.9434 251.342 26.9434ZM276.733 20.4834V27.4707H287.386V32.876H276.733V45.1367C276.733 46.1738 276.848 47.0439 277.076 47.7471C277.322 48.4326 277.665 48.9775 278.104 49.3818C278.544 49.8037 279.071 50.1025 279.687 50.2783C280.319 50.4541 281.022 50.542 281.796 50.542C282.358 50.542 282.93 50.5156 283.51 50.4629C284.107 50.4102 284.679 50.3398 285.224 50.252C285.751 50.1816 286.243 50.1025 286.7 50.0146C287.175 49.9268 287.579 49.8389 287.913 49.751L288.625 54.7871C288.115 55.0859 287.518 55.3496 286.832 55.5781C286.146 55.7891 285.417 55.9648 284.644 56.1055C283.87 56.2461 283.062 56.3516 282.218 56.4219C281.392 56.5098 280.574 56.5537 279.766 56.5537C278.201 56.5537 276.777 56.3516 275.494 55.9473C274.229 55.5254 273.147 54.875 272.251 53.9961C271.337 53.1348 270.634 52.0361 270.142 50.7002C269.649 49.3467 269.403 47.7295 269.403 45.8486V32.876H262.891V27.4707H269.403V20.4834H276.733Z"
    fill="black" />
  <path
    d="M95.8105 84.2695H87.6543V108H85.5977L85.6152 84.2695H77.4414V82.4062H95.8105V84.2695ZM108.924 108.352C107.611 108.352 106.41 108.105 105.32 107.613C104.23 107.121 103.299 106.453 102.525 105.609C101.74 104.754 101.131 103.764 100.697 102.639C100.264 101.502 100.047 100.295 100.047 99.0176V98.2617C100.047 96.9141 100.264 95.6543 100.697 94.4824C101.143 93.2988 101.752 92.2734 102.525 91.4062C103.275 90.5508 104.166 89.877 105.197 89.3848C106.229 88.8809 107.342 88.6289 108.537 88.6289C109.791 88.6289 110.904 88.8574 111.877 89.3145C112.85 89.7598 113.67 90.375 114.338 91.1602C115.006 91.957 115.51 92.8887 115.85 93.9551C116.189 95.0098 116.365 96.1406 116.377 97.3477V98.6309H102.139V99.2109C102.186 100.219 102.373 101.156 102.701 102.023C103.029 102.891 103.492 103.658 104.09 104.326C104.676 105.006 105.385 105.551 106.217 105.961C107.061 106.359 107.992 106.559 109.012 106.559C110.184 106.57 111.244 106.354 112.193 105.908C113.143 105.463 113.957 104.818 114.637 103.975L115.955 104.977C115.24 105.984 114.285 106.799 113.09 107.42C111.895 108.041 110.506 108.352 108.924 108.352ZM108.537 90.4395C107.67 90.4395 106.879 90.6035 106.164 90.9316C105.449 91.248 104.822 91.6875 104.283 92.25C103.744 92.8242 103.299 93.5039 102.947 94.2891C102.596 95.0742 102.355 95.9238 102.227 96.8379H114.285V96.6445C114.285 95.8711 114.145 95.1035 113.863 94.3418C113.594 93.5801 113.219 92.9121 112.738 92.3379C112.246 91.7637 111.648 91.3066 110.945 90.9668C110.242 90.6152 109.439 90.4395 108.537 90.4395ZM130.141 106.559C130.844 106.559 131.512 106.459 132.145 106.26C132.789 106.049 133.363 105.75 133.867 105.363C134.359 104.977 134.758 104.514 135.062 103.975C135.367 103.424 135.549 102.809 135.607 102.129H137.611C137.553 103.02 137.312 103.846 136.891 104.607C136.48 105.369 135.936 106.025 135.256 106.576C134.576 107.139 133.797 107.578 132.918 107.895C132.039 108.199 131.113 108.352 130.141 108.352C128.758 108.352 127.551 108.088 126.52 107.561C125.488 107.033 124.627 106.324 123.936 105.434C123.244 104.566 122.729 103.564 122.389 102.428C122.049 101.279 121.873 100.09 121.861 98.8594V98.1211C121.873 96.9023 122.049 95.7188 122.389 94.5703C122.729 93.4219 123.244 92.4082 123.936 91.5293C124.615 90.6504 125.471 89.9473 126.502 89.4199C127.533 88.8926 128.74 88.6289 130.123 88.6289C131.189 88.6289 132.168 88.7988 133.059 89.1387C133.961 89.4668 134.74 89.9297 135.396 90.5273C136.053 91.125 136.574 91.8398 136.961 92.6719C137.348 93.5039 137.564 94.4062 137.611 95.3789H135.607C135.561 94.6641 135.391 94.0078 135.098 93.4102C134.816 92.8008 134.436 92.2734 133.955 91.8281C133.463 91.3945 132.889 91.0547 132.232 90.8086C131.588 90.5625 130.885 90.4395 130.123 90.4395C129.021 90.4395 128.078 90.6621 127.293 91.1074C126.52 91.5527 125.887 92.1328 125.395 92.8477C124.902 93.5859 124.539 94.4121 124.305 95.3262C124.082 96.2402 123.971 97.1719 123.971 98.1211V98.8594C123.971 99.8203 124.082 100.764 124.305 101.689C124.539 102.604 124.902 103.418 125.395 104.133C125.887 104.859 126.52 105.445 127.293 105.891C128.078 106.336 129.027 106.559 130.141 106.559ZM146.154 92.6895C146.436 92.1504 146.77 91.6523 147.156 91.1953C147.555 90.7266 147.994 90.3164 148.475 89.9648C149.061 89.543 149.699 89.2148 150.391 88.9805C151.094 88.7461 151.844 88.6289 152.641 88.6289C153.684 88.6289 154.609 88.793 155.418 89.1211C156.227 89.4375 156.9 89.9004 157.439 90.5098C157.99 91.1309 158.406 91.8926 158.688 92.7949C158.969 93.6973 159.109 94.7168 159.109 95.8535V108H157.018V95.8359C157.006 95.0156 156.906 94.2773 156.719 93.6211C156.531 92.9531 156.244 92.3906 155.857 91.9336C155.447 91.4531 154.932 91.0898 154.311 90.8438C153.701 90.5859 152.98 90.4629 152.148 90.4746C151.422 90.4746 150.73 90.5977 150.074 90.8438C149.43 91.0898 148.838 91.4297 148.299 91.8633C147.807 92.25 147.379 92.707 147.016 93.2344C146.652 93.7617 146.365 94.3242 146.154 94.9219V108H144.062V81H146.154V92.6895ZM165.666 108V88.9805H167.6L167.723 92.6719C168.016 92.1211 168.361 91.6113 168.76 91.1426C169.158 90.6738 169.604 90.2695 170.096 89.9297C170.67 89.5312 171.303 89.2148 171.994 88.9805C172.697 88.7461 173.441 88.6289 174.227 88.6289C175.27 88.6289 176.189 88.7871 176.986 89.1035C177.795 89.4199 178.469 89.8828 179.008 90.4922C179.559 91.1133 179.975 91.8691 180.256 92.7598C180.537 93.6504 180.678 94.6641 180.678 95.8008V108H178.586V95.8359C178.574 94.9688 178.469 94.2012 178.27 93.5332C178.082 92.8652 177.789 92.3027 177.391 91.8457C176.98 91.3887 176.471 91.043 175.861 90.8086C175.264 90.5742 174.549 90.4629 173.717 90.4746C172.99 90.4746 172.305 90.6035 171.66 90.8613C171.016 91.1074 170.43 91.4414 169.902 91.8633C169.41 92.2617 168.982 92.7363 168.619 93.2871C168.256 93.8262 167.975 94.4004 167.775 95.0098V108H165.666ZM186.215 98.209C186.215 96.9199 186.408 95.6953 186.795 94.5352C187.182 93.375 187.738 92.3613 188.465 91.4941C189.191 90.6152 190.076 89.918 191.119 89.4023C192.162 88.8867 193.352 88.6289 194.688 88.6289C196.012 88.6289 197.195 88.8867 198.238 89.4023C199.293 89.918 200.189 90.6094 200.928 91.4766C201.643 92.3555 202.193 93.375 202.58 94.5352C202.967 95.6953 203.166 96.9199 203.178 98.209V98.7891C203.166 100.078 202.967 101.303 202.58 102.463C202.205 103.611 201.654 104.625 200.928 105.504C200.201 106.371 199.316 107.062 198.273 107.578C197.23 108.094 196.047 108.352 194.723 108.352C193.387 108.352 192.191 108.1 191.137 107.596C190.082 107.08 189.197 106.383 188.482 105.504C187.744 104.637 187.182 103.623 186.795 102.463C186.408 101.303 186.215 100.078 186.215 98.7891V98.209ZM188.307 98.7891C188.307 99.7969 188.447 100.77 188.729 101.707C189.01 102.645 189.42 103.471 189.959 104.186C190.498 104.912 191.166 105.492 191.963 105.926C192.76 106.348 193.68 106.559 194.723 106.559C195.754 106.559 196.662 106.348 197.447 105.926C198.232 105.492 198.9 104.912 199.451 104.186C199.979 103.459 200.377 102.633 200.646 101.707C200.928 100.77 201.074 99.7969 201.086 98.7891V98.209C201.074 97.2129 200.928 96.2461 200.646 95.3086C200.365 94.3711 199.961 93.5449 199.434 92.8301C198.883 92.1035 198.209 91.5234 197.412 91.0898C196.627 90.6562 195.719 90.4395 194.688 90.4395C193.645 90.4395 192.73 90.6562 191.945 91.0898C191.16 91.5234 190.498 92.1035 189.959 92.8301C189.42 93.5449 189.01 94.3711 188.729 95.3086C188.447 96.2461 188.307 97.2129 188.307 98.209V98.7891ZM209.4 81H218.26V106.119H224.693V108H209.4V106.119H216.168V82.8809H209.4V81ZM229.457 98.209C229.457 96.9199 229.65 95.6953 230.037 94.5352C230.424 93.375 230.98 92.3613 231.707 91.4941C232.434 90.6152 233.318 89.918 234.361 89.4023C235.404 88.8867 236.594 88.6289 237.93 88.6289C239.254 88.6289 240.438 88.8867 241.48 89.4023C242.535 89.918 243.432 90.6094 244.17 91.4766C244.885 92.3555 245.436 93.375 245.822 94.5352C246.209 95.6953 246.408 96.9199 246.42 98.209V98.7891C246.408 100.078 246.209 101.303 245.822 102.463C245.447 103.611 244.896 104.625 244.17 105.504C243.443 106.371 242.559 107.062 241.516 107.578C240.473 108.094 239.289 108.352 237.965 108.352C236.629 108.352 235.434 108.1 234.379 107.596C233.324 107.08 232.439 106.383 231.725 105.504C230.986 104.637 230.424 103.623 230.037 102.463C229.65 101.303 229.457 100.078 229.457 98.7891V98.209ZM231.549 98.7891C231.549 99.7969 231.689 100.77 231.971 101.707C232.252 102.645 232.662 103.471 233.201 104.186C233.74 104.912 234.408 105.492 235.205 105.926C236.002 106.348 236.922 106.559 237.965 106.559C238.996 106.559 239.904 106.348 240.689 105.926C241.475 105.492 242.143 104.912 242.693 104.186C243.221 103.459 243.619 102.633 243.889 101.707C244.17 100.77 244.316 99.7969 244.328 98.7891V98.209C244.316 97.2129 244.17 96.2461 243.889 95.3086C243.607 94.3711 243.203 93.5449 242.676 92.8301C242.125 92.1035 241.451 91.5234 240.654 91.0898C239.869 90.6562 238.961 90.4395 237.93 90.4395C236.887 90.4395 235.973 90.6562 235.188 91.0898C234.402 91.5234 233.74 92.1035 233.201 92.8301C232.662 93.5449 232.252 94.3711 231.971 95.3086C231.689 96.2461 231.549 97.2129 231.549 98.209V98.7891ZM251.553 98.3145C251.553 97.0723 251.699 95.8828 251.992 94.7461C252.285 93.6094 252.736 92.5898 253.346 91.6875C253.955 90.7852 254.734 90.0527 255.684 89.4902C256.645 88.916 257.787 88.6289 259.111 88.6289C259.803 88.6289 260.453 88.7168 261.062 88.8926C261.684 89.0566 262.252 89.3027 262.768 89.6309C263.178 89.8887 263.553 90.1875 263.893 90.5273C264.244 90.8672 264.555 91.2422 264.824 91.6523L264.912 88.9805H266.863V107.666C266.863 108.838 266.682 109.904 266.318 110.865C265.967 111.838 265.463 112.67 264.807 113.361C264.139 114.064 263.336 114.609 262.398 114.996C261.473 115.383 260.424 115.576 259.252 115.576C258.619 115.576 257.975 115.494 257.318 115.33C256.662 115.178 256.029 114.943 255.42 114.627C254.893 114.369 254.383 114.047 253.891 113.66C253.41 113.285 252.982 112.846 252.607 112.342L253.785 111.041C254.125 111.451 254.477 111.814 254.84 112.131C255.203 112.447 255.578 112.717 255.965 112.939C256.445 113.209 256.943 113.414 257.459 113.555C257.986 113.707 258.537 113.783 259.111 113.783C260.014 113.783 260.811 113.637 261.502 113.344C262.205 113.051 262.803 112.641 263.295 112.113C263.764 111.586 264.121 110.947 264.367 110.197C264.625 109.459 264.754 108.639 264.754 107.736V105.645C264.473 106.043 264.145 106.4 263.77 106.717C263.406 107.021 263.008 107.291 262.574 107.525C262.059 107.795 261.502 108 260.904 108.141C260.318 108.281 259.709 108.352 259.076 108.352C257.822 108.352 256.732 108.088 255.807 107.561C254.881 107.033 254.107 106.33 253.486 105.451C252.83 104.561 252.344 103.523 252.027 102.34C251.711 101.145 251.553 99.9258 251.553 98.6836V98.3145ZM253.662 98.6836C253.674 99.6562 253.785 100.629 253.996 101.602C254.219 102.562 254.57 103.406 255.051 104.133C255.484 104.848 256.07 105.422 256.809 105.855C257.547 106.289 258.432 106.506 259.463 106.506C260.061 106.506 260.629 106.43 261.168 106.277C261.719 106.113 262.229 105.885 262.697 105.592C263.143 105.299 263.541 104.947 263.893 104.537C264.256 104.115 264.543 103.641 264.754 103.113V94.166C264.543 93.6152 264.268 93.1172 263.928 92.6719C263.588 92.2266 263.195 91.8398 262.75 91.5117C262.305 91.1836 261.807 90.9316 261.256 90.7559C260.717 90.5684 260.131 90.4746 259.498 90.4746C258.385 90.4746 257.453 90.7207 256.703 91.2129C255.953 91.6934 255.355 92.3086 254.91 93.0586C254.465 93.7969 254.143 94.623 253.943 95.5371C253.756 96.4512 253.662 97.377 253.662 98.3145V98.6836ZM274.773 115.682C274.492 115.682 274.182 115.652 273.842 115.594C273.514 115.547 273.227 115.5 272.98 115.453L273.227 113.678C273.484 113.701 273.748 113.725 274.018 113.748C274.287 113.783 274.521 113.801 274.721 113.801C275.26 113.801 275.752 113.689 276.197 113.467C276.643 113.256 277.041 112.98 277.393 112.641C277.744 112.312 278.049 111.938 278.307 111.516C278.564 111.105 278.787 110.707 278.975 110.32L280.275 107.543L271.715 88.9805H274.088L280.627 103.43L281.312 105.135L281.98 103.465L288.186 88.9805H290.576L280.75 111.059C280.492 111.633 280.188 112.189 279.836 112.729C279.484 113.279 279.068 113.771 278.588 114.205C278.107 114.65 277.551 115.008 276.918 115.277C276.297 115.547 275.582 115.682 274.773 115.682Z"
    fill="black" />
  <path
    d="M341.129 108.602L341.129 88.3398L344 88.3398L344 111.883L304.187 111.883L304.187 108.602L341.129 108.602ZM306.84 68.0781L314.414 68.0781L314.414 57.1133L317.121 57.1133L317.121 68.0781L335.66 68.0781C336.809 68.0599 337.766 67.8867 338.531 67.5586C339.297 67.2305 339.908 66.7747 340.363 66.1914C340.837 65.6081 341.174 64.9245 341.375 64.1406C341.576 63.3568 341.676 62.5182 341.676 61.625C341.676 61.0964 341.658 60.5677 341.621 60.0391C341.566 59.5104 341.512 58.9909 341.457 58.4805C341.402 58.0977 341.348 57.724 341.293 57.3594C341.22 56.9766 341.156 56.6484 341.102 56.375L343.59 55.8828C343.754 56.2109 343.891 56.5937 344 57.0312C344.109 57.4505 344.201 57.8971 344.273 58.3711C344.383 58.9727 344.456 59.6016 344.492 60.2578C344.529 60.8958 344.547 61.5339 344.547 62.1719C344.547 63.4844 344.383 64.7057 344.055 65.8359C343.745 66.9479 343.234 67.9141 342.523 68.7344C341.831 69.5547 340.919 70.2018 339.789 70.6758C338.659 71.1315 337.283 71.3685 335.66 71.3867L317.121 71.3867L317.121 79.6172L314.414 79.6172L314.414 71.3867L306.84 71.3867L306.84 68.0781ZM328.934 46.3125C326.983 46.3125 325.115 46.0755 323.328 45.6016C321.523 45.1094 319.937 44.3984 318.57 43.4687C317.148 42.5026 316.009 41.2812 315.152 39.8047C314.296 38.3281 313.867 36.5781 313.867 34.5547C313.867 32.6953 314.277 31.0091 315.098 29.4961C315.9 27.9831 317.012 26.7435 318.434 25.7773L302 25.7773L302 22.5234L344 22.5234L344 25.5586L340.227 25.668C341.63 26.6888 342.706 27.9831 343.453 29.5508C344.182 31.1185 344.547 32.8047 344.547 34.6094C344.547 36.5599 344.118 38.2734 343.262 39.75C342.405 41.2083 341.275 42.4297 339.871 43.4141C338.486 44.362 336.891 45.082 335.086 45.5742C333.281 46.0664 331.422 46.3125 329.508 46.3125L328.934 46.3125ZM329.508 43.0312C330.984 43.0312 332.443 42.8763 333.883 42.5664C335.305 42.2383 336.599 41.7279 337.766 41.0352C338.914 40.306 339.853 39.3763 340.582 38.2461C341.311 37.0977 341.676 35.6849 341.676 34.0078C341.676 32.1849 341.22 30.5352 340.309 29.0586C339.397 27.582 338.139 26.4883 336.535 25.7773L322.344 25.7773C320.667 26.4518 319.318 27.5091 318.297 28.9492C317.258 30.3711 316.738 32.0391 316.738 33.9531C316.738 35.6484 317.103 37.0794 317.832 38.2461C318.561 39.3945 319.509 40.3242 320.676 41.0352C321.842 41.7279 323.146 42.2383 324.586 42.5664C326.026 42.8763 327.475 43.0312 328.934 43.0312L329.508 43.0312Z"
    fill="black" />
  <line x1="359.5" y1="17" x2="359.5" y2="156" stroke="black" stroke-width="5" />
</svg>